# xmcd
#
# Track frame offsets:
#	150
#	13315
#	34935
#	50125
#	67970
#	86120
#	102855
#	127745
#	145045
#	160725
#
# Disc length: 2335 seconds
#
# Revision: 1
# Processed by: cddbd v1.5.1PL2 Copyright (c) Steve Scherf et al.
# Submitted via: audiograbber 1.83.01
#
DISCID=82091d0a
DTITLE=The Western Caravan - Yellow Texas Moon
DYEAR=2000
DGENRE=Western Swing
TTITLE0=Yellow Texas Moon
TTITLE1=Oklahoma Blues
TTITLE2=One Last Lie
TTITLE3=Honey Fingers
TTITLE4=Making A Fool Of Myself
TTITLE5=Bessie
TTITLE6=Voyage To The Bottom Of The Bottle
TTITLE7=Back Home Again In Indiana
TTITLE8=Psycho
TTITLE9=I Kind Of Like It Here In France
EXTD=Featuring Thirsty Dave\n\nwww.westerncaravan.com
EXTT0=D. Hansen
EXTT1=D. Hansen
EXTT2=J. Kerr - D. Hansen
EXTT3=Charleton - Rhodes
EXTT4=D. Hansen - additional lyrics by W. Smith
EXTT5=J. Kerr
EXTT6=D. Hansen
EXTT7=Hanley - MacDonald
EXTT8=L. Payne
EXTT9=J. Kerr
PLAYORDER=
